<?xml version="1.0" encoding="UTF-8" standalone="no"?>
<svg
   width="195"
   height="30"
   viewBox="0 0 195 30"
   fill="none"
   version="1.1"
   id="svg1"
   sodipodi:docname="logo-white2.svg"
   inkscape:version="1.4 (e7c3feb100, 2024-10-09)"
   xmlns:inkscape="http://www.inkscape.org/namespaces/inkscape"
   xmlns:sodipodi="http://sodipodi.sourceforge.net/DTD/sodipodi-0.dtd"
   xmlns="http://www.w3.org/2000/svg"
   xmlns:svg="http://www.w3.org/2000/svg">
  <defs
     id="defs1" />
  <sodipodi:namedview
     id="namedview1"
     pagecolor="#505050"
     bordercolor="#eeeeee"
     borderopacity="1"
     inkscape:showpageshadow="0"
     inkscape:pageopacity="0"
     inkscape:pagecheckerboard="0"
     inkscape:deskcolor="#505050"
     inkscape:zoom="13.416667"
     inkscape:cx="61.118012"
     inkscape:cy="15.018634"
     inkscape:window-width="2560"
     inkscape:window-height="1352"
     inkscape:window-x="0"
     inkscape:window-y="0"
     inkscape:window-maximized="1"
     inkscape:current-layer="svg1" />
  <path
     id="path1"
     d="M 8.01647,24 V 9.912 H 0.960469 V 6.72 H 18.2405 v 3.192 h -7.032 V 24 Z m 16.41093,0 c -0.608,0 -1.16,-0.152 -1.656,-0.456 -0.496,-0.304 -0.896,-0.704 -1.2,-1.2 -0.304,-0.496 -0.456,-1.048 -0.456,-1.656 v -7.296 c 0,-0.608 0.152,-1.16 0.456,-1.656 0.304,-0.496 0.704,-0.896 1.2,-1.2 0.496,-0.304 1.048,-0.456 1.656,-0.456 h 7.512 c 0.608,0 1.16,0.152 1.656,0.456 0.512,0.304 0.912,0.704 1.2,1.2 0.304,0.496 0.456,1.048 0.456,1.656 v 5.232 h -10.992 v 1.944 c 0,0.08 0.024,0.152 0.072,0.216 0.064,0.048 0.136,0.072 0.216,0.072 h 10.704 V 24 Z m -0.168,-8.208 h 7.848 v -2.28 c 0,-0.08 -0.032,-0.144 -0.096,-0.192 -0.048,-0.064 -0.112,-0.096 -0.192,-0.096 h -7.272 c -0.08,0 -0.152,0.032 -0.216,0.096 -0.048,0.048 -0.072,0.112 -0.072,0.192 z M 41.6821,24 c -0.608,0 -1.16,-0.152 -1.656,-0.456 -0.496,-0.304 -0.896,-0.704 -1.2,-1.2 -0.304,-0.496 -0.456,-1.048 -0.456,-1.656 v -7.296 c 0,-0.608 0.152,-1.16 0.456,-1.656 0.304,-0.496 0.704,-0.896 1.2,-1.2 0.496,-0.304 1.048,-0.456 1.656,-0.456 h 10.8 v 3.144 h -10.68 c -0.08,0 -0.152,0.032 -0.216,0.096 -0.048,0.048 -0.072,0.112 -0.072,0.192 v 7.056 c 0,0.08 0.024,0.152 0.072,0.216 0.064,0.048 0.136,0.072 0.216,0.072 h 10.704 V 24 Z m 14.0616,0 V 5.52 h 3.144 v 4.56 h 7.68 c 0.608,0 1.16,0.152 1.656,0.456 0.496,0.304 0.896,0.704 1.2,1.2 0.304,0.496 0.456,1.048 0.456,1.656 V 24 h -3.144 V 13.512 c 0,-0.08 -0.032,-0.144 -0.096,-0.192 -0.048,-0.064 -0.112,-0.096 -0.192,-0.096 h -7.272 c -0.08,0 -0.152,0.032 -0.216,0.096 -0.048,0.048 -0.072,0.112 -0.072,0.192 V 24 Z M 81.283,24 V 6.72 h 3.168 v 7.032 H 95.779 V 6.72 h 3.168 V 24 H 95.779 V 16.968 H 84.451 V 24 Z m 23.644,0 c -0.608,0 -1.16,-0.152 -1.656,-0.456 -0.496,-0.304 -0.896,-0.704 -1.2,-1.2 -0.304,-0.496 -0.456,-1.048 -0.456,-1.656 v -7.296 c 0,-0.608 0.152,-1.16 0.456,-1.656 0.304,-0.496 0.704,-0.896 1.2,-1.2 0.496,-0.304 1.048,-0.456 1.656,-0.456 h 7.512 c 0.608,0 1.16,0.152 1.656,0.456 0.512,0.304 0.912,0.704 1.2,1.2 0.304,0.496 0.456,1.048 0.456,1.656 v 5.232 h -10.992 v 1.944 c 0,0.08 0.024,0.152 0.072,0.216 0.064,0.048 0.136,0.072 0.216,0.072 h 10.704 V 24 Z m -0.168,-8.208 h 7.848 v -2.28 c 0,-0.08 -0.032,-0.144 -0.096,-0.192 -0.048,-0.064 -0.112,-0.096 -0.192,-0.096 h -7.272 c -0.08,0 -0.152,0.032 -0.216,0.096 -0.048,0.048 -0.072,0.112 -0.072,0.192 z M 121.889,24 c -0.608,0 -1.168,-0.152 -1.68,-0.456 -0.496,-0.304 -0.896,-0.704 -1.2,-1.2 -0.288,-0.496 -0.432,-1.048 -0.432,-1.656 v -5.232 h 10.992 v -1.944 c 0,-0.08 -0.032,-0.144 -0.096,-0.192 -0.048,-0.064 -0.112,-0.096 -0.192,-0.096 H 118.577 V 10.08 h 10.824 c 0.608,0 1.16,0.152 1.656,0.456 0.512,0.304 0.912,0.704 1.2,1.2 0.304,0.496 0.456,1.048 0.456,1.656 V 24 Z m 0.12,-3.144 h 7.56 v -2.568 h -7.848 v 2.28 c 0,0.08 0.024,0.152 0.072,0.216 0.064,0.048 0.136,0.072 0.216,0.072 z M 142.58,24 134.924,10.08 h 3.624 l 5.496,10.104 5.472,-10.104 h 3.624 L 145.46,24 Z m 15.81,0 c -0.608,0 -1.16,-0.152 -1.656,-0.456 -0.496,-0.304 -0.896,-0.704 -1.2,-1.2 -0.304,-0.496 -0.456,-1.048 -0.456,-1.656 v -7.296 c 0,-0.608 0.152,-1.16 0.456,-1.656 0.304,-0.496 0.704,-0.896 1.2,-1.2 0.496,-0.304 1.048,-0.456 1.656,-0.456 h 7.512 c 0.608,0 1.16,0.152 1.656,0.456 0.512,0.304 0.912,0.704 1.2,1.2 0.304,0.496 0.456,1.048 0.456,1.656 v 5.232 h -10.992 v 1.944 c 0,0.08 0.024,0.152 0.072,0.216 0.064,0.048 0.136,0.072 0.216,0.072 h 10.704 V 24 Z m -0.168,-8.208 h 7.848 v -2.28 c 0,-0.08 -0.032,-0.144 -0.096,-0.192 -0.048,-0.064 -0.112,-0.096 -0.192,-0.096 h -7.272 c -0.08,0 -0.152,0.032 -0.216,0.096 -0.048,0.048 -0.072,0.112 -0.072,0.192 z M 172.967,24 V 10.08 h 10.824 c 0.608,0 1.16,0.152 1.656,0.456 0.512,0.304 0.912,0.704 1.2,1.2 0.304,0.496 0.456,1.048 0.456,1.656 V 24 h -3.144 V 13.512 c 0,-0.08 -0.032,-0.144 -0.096,-0.192 -0.048,-0.064 -0.112,-0.096 -0.192,-0.096 h -7.272 c -0.08,0 -0.152,0.032 -0.216,0.096 -0.048,0.048 -0.072,0.112 -0.072,0.192 V 24 Z m 17.411,0 v -3.144 h 3.144 V 24 Z"
     inkscape:highlight-color="#c2c2c2"
     style="fill:#ffffff" />
</svg>
