<?xml version="1.0" encoding="UTF-8" standalone="no"?>
<svg
   width="195"
   height="30"
   viewBox="0 0 195 30"
   fill="none"
   version="1.1"
   id="svg2"
   sodipodi:docname="logo-black.svg"
   inkscape:version="1.4 (e7c3feb100, 2024-10-09)"
   xmlns:inkscape="http://www.inkscape.org/namespaces/inkscape"
   xmlns:sodipodi="http://sodipodi.sourceforge.net/DTD/sodipodi-0.dtd"
   xmlns="http://www.w3.org/2000/svg"
   xmlns:svg="http://www.w3.org/2000/svg">
  <defs
     id="defs2" />
  <sodipodi:namedview
     id="namedview2"
     pagecolor="#505050"
     bordercolor="#eeeeee"
     borderopacity="1"
     inkscape:showpageshadow="0"
     inkscape:pageopacity="0"
     inkscape:pagecheckerboard="0"
     inkscape:deskcolor="#505050"
     showgrid="false"
     inkscape:zoom="10.7"
     inkscape:cx="95.420561"
     inkscape:cy="15"
     inkscape:window-width="2560"
     inkscape:window-height="1352"
     inkscape:window-x="0"
     inkscape:window-y="0"
     inkscape:window-maximized="1"
     inkscape:current-layer="svg2" />
  <path
     d="M 8.01647,24 V 9.912 H 0.960469 V 6.72 H 18.2405 v 3.192 h -7.032 V 24 Z m 16.41093,0 c -0.608,0 -1.16,-0.152 -1.656,-0.456 -0.496,-0.304 -0.896,-0.704 -1.2,-1.2 -0.304,-0.496 -0.456,-1.048 -0.456,-1.656 v -7.296 c 0,-0.608 0.152,-1.16 0.456,-1.656 0.304,-0.496 0.704,-0.896 1.2,-1.2 0.496,-0.304 1.048,-0.456 1.656,-0.456 h 7.512 c 0.608,0 1.16,0.152 1.656,0.456 0.512,0.304 0.912,0.704 1.2,1.2 0.304,0.496 0.456,1.048 0.456,1.656 v 5.232 h -10.992 v 1.944 c 0,0.08 0.024,0.152 0.072,0.216 0.064,0.048 0.136,0.072 0.216,0.072 h 10.704 V 24 Z m -0.168,-8.208 h 7.848 v -2.28 c 0,-0.08 -0.032,-0.144 -0.096,-0.192 -0.048,-0.064 -0.112,-0.096 -0.192,-0.096 h -7.272 c -0.08,0 -0.152,0.032 -0.216,0.096 -0.048,0.048 -0.072,0.112 -0.072,0.192 z M 41.6821,24 c -0.608,0 -1.16,-0.152 -1.656,-0.456 -0.496,-0.304 -0.896,-0.704 -1.2,-1.2 -0.304,-0.496 -0.456,-1.048 -0.456,-1.656 v -7.296 c 0,-0.608 0.152,-1.16 0.456,-1.656 0.304,-0.496 0.704,-0.896 1.2,-1.2 0.496,-0.304 1.048,-0.456 1.656,-0.456 h 10.8 v 3.144 h -10.68 c -0.08,0 -0.152,0.032 -0.216,0.096 -0.048,0.048 -0.072,0.112 -0.072,0.192 v 7.056 c 0,0.08 0.024,0.152 0.072,0.216 0.064,0.048 0.136,0.072 0.216,0.072 h 10.704 V 24 Z m 14.0616,0 V 5.52 h 3.144 v 4.56 h 7.68 c 0.608,0 1.16,0.152 1.656,0.456 0.496,0.304 0.896,0.704 1.2,1.2 0.304,0.496 0.456,1.048 0.456,1.656 V 24 h -3.144 V 13.512 c 0,-0.08 -0.032,-0.144 -0.096,-0.192 -0.048,-0.064 -0.112,-0.096 -0.192,-0.096 h -7.272 c -0.08,0 -0.152,0.032 -0.216,0.096 -0.048,0.048 -0.072,0.112 -0.072,0.192 V 24 Z"
     fill="#000000"
     id="path1" />
  <path
     id="path11"
     d="m 157.722,15.792 h 7.848 v -2.28 c 0,-0.08 -0.032,-0.144 -0.096,-0.192 -0.048,-0.064 -0.112,-0.096 -0.192,-0.096 h -7.272 c -0.08,0 -0.152,0.032 -0.216,0.096 -0.048,0.048 -0.072,0.112 -0.072,0.192 z M 81.5828,24 V 6.72 h 3.168 v 7.032 h 11.328 V 6.72 h 3.168 V 24 h -3.168 V 16.968 H 84.7508 V 24 Z m 24.3072,0 c -0.608,0 -1.16,-0.152 -1.656,-0.456 -0.496,-0.304 -0.896,-0.704 -1.2,-1.2 -0.304,-0.496 -0.456,-1.048 -0.456,-1.656 v -7.296 c 0,-0.608 0.152,-1.16 0.456,-1.656 0.304,-0.496 0.704,-0.896 1.2,-1.2 0.496,-0.304 1.048,-0.456 1.656,-0.456 h 7.512 c 0.608,0 1.16,0.152 1.656,0.456 0.512,0.304 0.912,0.704 1.2,1.2 0.304,0.496 0.456,1.048 0.456,1.656 v 5.232 h -10.992 v 1.944 c 0,0.08 0.024,0.152 0.072,0.216 0.064,0.048 0.136,0.072 0.216,0.072 h 10.704 V 24 Z m 16.499,0 c -0.608,0 -1.168,-0.152 -1.68,-0.456 -0.496,-0.304 -0.896,-0.704 -1.2,-1.2 -0.288,-0.496 -0.432,-1.048 -0.432,-1.656 v -5.232 h 10.992 v -1.944 c 0,-0.08 -0.032,-0.144 -0.096,-0.192 -0.048,-0.064 -0.112,-0.096 -0.192,-0.096 H 119.077 V 10.08 h 10.824 c 0.608,0 1.16,0.152 1.656,0.456 0.512,0.304 0.912,0.704 1.2,1.2 0.304,0.496 0.456,1.048 0.456,1.656 V 24 Z m 0.12,-3.144 h 7.56 v -2.568 h -7.848 v 2.28 c 0,0.08 0.024,0.152 0.072,0.216 0.064,0.048 0.136,0.072 0.216,0.072 z M 142.08,24 134.424,10.08 h 3.624 l 5.496,10.104 5.472,-10.104 h 3.624 L 144.96,24 Z m 15.81,0 c -0.608,0 -1.16,-0.152 -1.656,-0.456 -0.496,-0.304 -0.896,-0.704 -1.2,-1.2 -0.304,-0.496 -0.456,-1.048 -0.456,-1.656 v -7.296 c 0,-0.608 0.152,-1.16 0.456,-1.656 0.304,-0.496 0.704,-0.896 1.2,-1.2 0.496,-0.304 1.048,-0.456 1.656,-0.456 h 7.512 c 0.608,0 1.16,0.152 1.656,0.456 0.512,0.304 0.912,0.704 1.2,1.2 0.304,0.496 0.456,1.048 0.456,1.656 v 5.232 h -10.992 v 1.944 c 0,0.08 0.024,0.152 0.072,0.216 0.064,0.048 0.136,0.072 0.216,0.072 h 10.704 V 24 Z m -52.168,-8.208 h 7.848 v -2.28 c 0,-0.08 -0.032,-0.144 -0.096,-0.192 -0.048,-0.064 -0.112,-0.096 -0.192,-0.096 h -7.272 c -0.08,0 -0.152,0.032 -0.216,0.096 -0.048,0.048 -0.072,0.112 -0.072,0.192 z M 172.467,24 V 10.08 h 10.824 c 0.608,0 1.16,0.152 1.656,0.456 0.512,0.304 0.912,0.704 1.2,1.2 0.304,0.496 0.456,1.048 0.456,1.656 V 24 h -3.144 V 13.512 c 0,-0.08 -0.032,-0.144 -0.096,-0.192 -0.048,-0.064 -0.112,-0.096 -0.192,-0.096 h -7.272 c -0.08,0 -0.152,0.032 -0.216,0.096 -0.048,0.048 -0.072,0.112 -0.072,0.192 V 24 Z m 17.911,0 v -3.144 h 3.144 V 24 Z"
     style="fill:#14111c;fill-opacity:1"
     inkscape:highlight-color="#aaaaaa" />
</svg>
